<?xml version="1.0" encoding="utf-8"?>
<!-- Generator: Adobe Illustrator 25.4.1, SVG Export Plug-In . SVG Version: 6.00 Build 0)  -->
<svg version="1.1" id="레이어_1" xmlns="http://www.w3.org/2000/svg" xmlns:xlink="http://www.w3.org/1999/xlink" x="0px"
	 y="0px" viewBox="0 0 277.2 307.7" style="enable-background:new 0 0 277.2 307.7;" xml:space="preserve">
<g id="_x31_TRwgN.tif">
	<g>
		<path d="M103.2,170.4c0.3-0.1,0.6-0.3,0.9-0.4c3.8-2.3,7.5-4.9,11-7.7c-2.8-1.6-5.7-3.3-8.7-5c5.8-3.5,10.8-7.5,15.4-12.1
			c-1.5-0.7-3-1.4-4.4-2.1c-1.4-0.8-2.8-1.6-4.2-2.5c8.2-5.2,15.1-11.6,20.1-20c4.9,8.4,11.8,14.8,20.1,20c-1.5,0.9-2.8,1.8-4.2,2.5
			c-1.4,0.8-2.9,1.4-4.4,2.1c4.6,4.6,9.7,8.5,15.2,12c-2.7,2-5.5,3.4-8.6,4.7c3.8,3.2,7.7,6.1,12,8.7c-0.3,0.2-0.5,0.4-0.7,0.5
			c-6.4,4.5-13.4,7.3-21.1,8.6c-1.4,0.2-2.7,0.4-4.1,0.5c-0.6,0-0.8,0.2-0.8,0.8c0,1.8,0,3.5,0,5.3c0,0.3,0,0.6,0,0.9
			c-2.2,0-4.4,0-6.6,0c0-0.9,0-1.7,0-2.6c0-1.2,0-2.4,0-3.7c0-0.6-0.2-0.7-0.7-0.8c-9-0.7-17.3-3.7-24.8-8.8
			c-0.4-0.3-0.8-0.5-1.1-0.8C103.2,170.5,103.2,170.5,103.2,170.4z"/>
	</g>
</g>
</svg>
