<?xml version="1.0" encoding="utf-8"?>
<!-- Generator: Adobe Illustrator 25.4.1, SVG Export Plug-In . SVG Version: 6.00 Build 0)  -->
<svg version="1.1" id="레이어_1" xmlns="http://www.w3.org/2000/svg" xmlns:xlink="http://www.w3.org/1999/xlink" x="0px"
	 y="0px" viewBox="0 0 258.1 265.6" style="enable-background:new 0 0 258.1 265.6;" xml:space="preserve">
<g id="_x32_GVfTr.tif">
	<g>
		<path d="M174.1,198.6c0,0.6,0,1.3,0,1.9c-0.4,2-1.7,3.5-3.1,4.9c-4.8,4.6-9.5,9.2-14.3,13.9c-1,0.9-1.4,2-1.1,3.3
			c1.2,7,2.4,14,3.6,21c0.4,2.2-0.1,4.2-1.6,5.8c-2.2,2.3-5.1,2.7-8,1.2c-6.2-3.2-12.4-6.5-18.6-9.8c-1.4-0.7-2.6-0.7-4,0
			c-5.3,2.8-10.7,5.6-16,8.4c-1.1,0.6-2.3,1.2-3.5,1.7c-3.7,1.5-8.1-0.8-8.7-4.7c-0.2-1.5,0-3,0.3-4.5c1.1-6.4,2.2-12.9,3.3-19.3
			c0.2-1.2-0.1-2.1-1-2.9c-0.7-0.6-1.3-1.3-2-1.9c-4.5-4.4-8.9-8.7-13.4-13.1c-2-1.9-2.7-4.2-1.8-6.8c0.8-2.6,2.7-4,5.4-4.4
			c7-1,14-2,21-3c1.4-0.2,2.4-0.8,3.1-2.2c1.2-2.5,2.4-5,3.7-7.5c1.9-3.8,3.8-7.7,5.7-11.5c1.1-2.3,2.9-3.7,5.5-3.8
			c3-0.2,5.1,1.2,6.5,3.9c3.1,6.3,6.2,12.6,9.3,18.9c0.6,1.3,1.6,1.9,3,2.1c6.6,0.9,13.3,1.9,19.9,2.9c1.4,0.2,2.8,0.4,4.1,1.3
			C172.8,195.3,173.6,196.8,174.1,198.6z"/>
	</g>
</g>
</svg>
