<?xml version="1.0" encoding="utf-8"?>
<!-- Generator: Adobe Illustrator 25.4.1, SVG Export Plug-In . SVG Version: 6.00 Build 0)  -->
<svg version="1.1" id="레이어_1" xmlns="http://www.w3.org/2000/svg" xmlns:xlink="http://www.w3.org/1999/xlink" x="0px"
	 y="0px" viewBox="0 0 386.4 433.8" style="enable-background:new 0 0 386.4 433.8;" xml:space="preserve">
<g id="KNXBMc.tif">
	<g>
		<path d="M193.2,298.4c-0.9-3.8-1.8-7.6-2.8-11.4c-4.2-17.6-8.5-35.3-12.7-52.9c-0.3-1.1-0.8-1.5-1.9-1.7
			c-21.2-5.1-42.4-10.2-63.5-15.2c-0.2,0-0.3-0.1-0.9-0.3c0.9-0.3,1.4-0.4,1.9-0.6c20.9-5,41.7-10,62.6-15c1-0.2,1.6-0.6,1.8-1.7
			c5-20.9,10-41.7,15-62.6c0.1-0.6,0.3-1.1,0.8-1.6c0.8,3.4,1.6,6.7,2.4,10.1c4.3,18.1,8.7,36.1,13,54.2c0.2,1,0.7,1.4,1.7,1.7
			c20.9,5,41.7,10,62.6,15c0.6,0.1,1.1,0.3,1.7,0.8c-2.9,0.7-5.8,1.4-8.7,2.1c-18.5,4.4-37.1,8.9-55.7,13.3
			c-1.1,0.3-1.4,0.9-1.7,1.9c-5.1,21.1-10.1,42.3-15.2,63.4c-0.1,0.2-0.1,0.4-0.2,0.6C193.4,298.4,193.3,298.4,193.2,298.4z"/>
	</g>
</g>
</svg>
