<?xml version="1.0" encoding="utf-8"?>
<!-- Generator: Adobe Illustrator 25.4.1, SVG Export Plug-In . SVG Version: 6.00 Build 0)  -->
<svg version="1.1" id="레이어_1" xmlns="http://www.w3.org/2000/svg" xmlns:xlink="http://www.w3.org/1999/xlink" x="0px"
	 y="0px" viewBox="0 0 512 512" style="enable-background:new 0 0 512 512;" xml:space="preserve">
<g id="AEahUO.tif">
	<g>
		<path d="M253,270c2,0,4,0,6,0c0.3,0.1,0.5,0.2,0.8,0.3c12.2,2.1,20,9.1,23.4,21c0.6,2,0.7,4.1,1.1,6.2c16-8.3,31.9,0,37.9,10.6
			c3.3,5.9,4.5,12.1,3.4,18.7c-1.4,8.5-5.9,14.9-13.3,19.7c4.1,2.6,7.3,5.7,9.7,9.7c2.4,4,3.7,8.3,3.9,13c0.2,4.7-0.6,9.1-2.6,13.3
			c-2.8,5.9-7,10.4-12.9,13.2c-8.8,4.3-17.5,4-26.2-0.5c-0.7,15.8-12.7,26.5-26,27.5c-6.6,0.5-12.7-1.1-18.1-4.9
			c-7.8-5.5-11.7-13.1-12.3-22.6c-16.3,8.4-32.1-0.3-38.1-10.7c-6-10.3-5.7-28.4,9.8-38.3c-6.1-3.9-10.3-9.2-12.3-16.1
			c-2-7-1.5-13.8,1.7-20.3c2.8-5.7,7-10.1,12.8-12.9c8.7-4.2,17.5-3.9,26.1,0.5c0-0.4,0.1-0.6,0.1-0.8c0.7-11.9,7.9-21.4,19.1-25.3
			C248.9,270.8,251,270.5,253,270z"/>
	</g>
</g>
</svg>
